<svg version="1.1" xmlns="http://www.w3.org/2000/svg" xmlns:xlink="http://www.w3.org/1999/xlink" x="0px" y="0px"
     width="1200px" height="282px" viewBox="0 0 1200 282" enable-background="new 0 0 1200 282" xml:space="preserve">
    <g id="Slogan">
        <g>
            <path fill="#F36B31" d="M723.638,243.232c0-1.985-0.599-3.505-1.796-4.561c-0.725-0.646-1.765-1.158-3.119-1.536v-2.859
                c1.528-0.521,2.607-1.095,3.237-1.726c1.119-1.087,1.678-2.749,1.678-4.986v-6.333c0-0.804,0.134-1.646,0.401-2.529
                c0.472-1.527,1.272-2.741,2.404-3.639c1.037-0.819,2.256-1.363,3.655-1.631c0.848-0.173,2.066-0.268,3.654-0.283v3.78
                c-1.3,0.284-2.185,0.661-2.654,1.133c-0.72,0.725-1.08,1.991-1.08,3.801v5.476c0,1.763-0.236,3.163-0.709,4.201
                c-0.804,1.747-2.379,3.163-4.727,4.248c2.127,0.866,3.557,1.873,4.29,3.021c0.732,1.148,1.114,2.738,1.146,4.768v5.972
                c0,1.746,0.423,3.005,1.269,3.776c0.47,0.456,1.291,0.857,2.466,1.203v3.781l-1.674-0.047c-2.248-0.063-4.217-0.736-5.906-2.021
                s-2.535-3.155-2.535-5.612V243.232z"/>
            <path fill="#BDBEBF" d="M755.727,228.299h9.205c1.516,0,2.766,0.226,3.749,0.676c1.868,0.864,2.803,2.459,2.803,4.783
                c0,1.214-0.251,2.206-0.752,2.978c-0.501,0.772-1.201,1.393-2.102,1.861c0.79,0.322,1.385,0.744,1.785,1.269
                c0.399,0.523,0.622,1.374,0.668,2.55l0.097,2.716c0.027,0.772,0.092,1.347,0.193,1.724c0.165,0.644,0.459,1.057,0.882,1.24v0.455
                h-3.363c-0.092-0.175-0.165-0.399-0.221-0.676c-0.055-0.275-0.102-0.809-0.138-1.599l-0.166-3.378
                c-0.062-1.323-0.54-2.21-1.433-2.66c-0.509-0.248-1.309-0.372-2.397-0.372h-6.067v8.685h-2.743V228.299z M764.637,237.576
                c1.251,0,2.24-0.257,2.969-0.771s1.093-1.442,1.093-2.784c0-1.443-0.509-2.427-1.528-2.95c-0.545-0.276-1.273-0.414-2.185-0.414
                h-6.516v6.92H764.637z"/>
            <path fill="#BDBEBF" d="M784.573,234.192c0.977,0.492,1.722,1.128,2.232,1.909c0.494,0.744,0.822,1.613,0.987,2.605
                c0.146,0.681,0.219,1.765,0.219,3.253h-10.738c0.045,1.503,0.396,2.708,1.053,3.615c0.657,0.908,1.674,1.361,3.05,1.361
                c1.286,0,2.312-0.429,3.078-1.287c0.429-0.499,0.732-1.076,0.911-1.731h2.439c-0.063,0.542-0.277,1.146-0.641,1.812
                c-0.363,0.667-0.768,1.211-1.215,1.634c-0.748,0.735-1.674,1.231-2.777,1.489c-0.593,0.146-1.264,0.22-2.011,0.22
                c-1.827,0-3.375-0.668-4.645-2.005c-1.27-1.338-1.904-3.21-1.904-5.618c0-2.371,0.64-4.296,1.918-5.776
                c1.279-1.479,2.95-2.219,5.015-2.219C782.586,233.455,783.596,233.701,784.573,234.192z M785.462,239.989
                c-0.101-1.075-0.333-1.935-0.697-2.578c-0.675-1.194-1.8-1.792-3.377-1.792c-1.13,0-2.077,0.411-2.843,1.233
                c-0.766,0.823-1.171,1.868-1.217,3.137H785.462z"/>
            <path fill="#BDBEBF"
                  d="M792.375,233.786l3.942,12.021l4.107-12.021h2.716l-5.558,14.764h-2.645l-5.445-14.764H792.375z"/>
            <path fill="#BDBEBF" d="M814.391,234.192c0.977,0.492,1.722,1.128,2.232,1.909c0.494,0.744,0.822,1.613,0.987,2.605
                c0.146,0.681,0.219,1.765,0.219,3.253h-10.738c0.045,1.503,0.396,2.708,1.053,3.615c0.657,0.908,1.674,1.361,3.05,1.361
                c1.286,0,2.312-0.429,3.078-1.287c0.429-0.499,0.732-1.076,0.911-1.731h2.439c-0.063,0.542-0.277,1.146-0.641,1.812
                c-0.363,0.667-0.768,1.211-1.215,1.634c-0.748,0.735-1.674,1.231-2.777,1.489c-0.593,0.146-1.264,0.22-2.011,0.22
                c-1.827,0-3.375-0.668-4.645-2.005c-1.27-1.338-1.904-3.21-1.904-5.618c0-2.371,0.64-4.296,1.918-5.776
                c1.279-1.479,2.95-2.219,5.015-2.219C812.403,233.455,813.413,233.701,814.391,234.192z M815.279,239.989
                c-0.101-1.075-0.333-1.935-0.697-2.578c-0.675-1.194-1.8-1.792-3.377-1.792c-1.13,0-2.077,0.411-2.843,1.233
                c-0.766,0.823-1.171,1.868-1.217,3.137H815.279z"/>
            <path fill="#BDBEBF" d="M828.885,239.614c0.57-0.073,0.951-0.312,1.145-0.715c0.11-0.222,0.165-0.54,0.165-0.955
                c0-0.849-0.301-1.465-0.901-1.848s-1.46-0.574-2.579-0.574c-1.293,0-2.211,0.352-2.752,1.053
                c-0.303,0.389-0.499,0.966-0.591,1.732h-2.316c0.046-1.825,0.636-3.095,1.77-3.809c1.134-0.715,2.448-1.071,3.944-1.071
                c1.735,0,3.145,0.33,4.228,0.992c1.074,0.661,1.61,1.691,1.61,3.088v8.506c0,0.258,0.053,0.465,0.159,0.62
                c0.105,0.156,0.328,0.234,0.668,0.234c0.11,0,0.234-0.007,0.373-0.021c0.138-0.014,0.284-0.034,0.44-0.062v1.834
                c-0.386,0.11-0.68,0.179-0.882,0.206c-0.202,0.028-0.479,0.042-0.827,0.042c-0.854,0-1.476-0.304-1.861-0.91
                c-0.202-0.321-0.345-0.776-0.427-1.364c-0.506,0.662-1.232,1.236-2.179,1.723c-0.946,0.487-1.989,0.73-3.129,0.73
                c-1.37,0-2.488-0.415-3.356-1.246c-0.869-0.83-1.303-1.87-1.303-3.118c0-1.368,0.427-2.428,1.281-3.181
                c0.855-0.752,1.977-1.216,3.364-1.391L828.885,239.614z M823.66,246.318c0.523,0.412,1.145,0.618,1.861,0.618
                c0.873,0,1.718-0.201,2.536-0.605c1.379-0.67,2.068-1.766,2.068-3.289v-1.996c-0.304,0.194-0.693,0.355-1.17,0.484
                s-0.944,0.221-1.403,0.276l-1.5,0.192c-0.898,0.119-1.574,0.308-2.027,0.564c-0.768,0.431-1.151,1.118-1.151,2.062
                C822.874,245.342,823.137,245.905,823.66,246.318z"/>
            <path fill="#BDBEBF" d="M836.742,228.299h2.481v20.251h-2.481V228.299z"/>
            <path fill="#BDBEBF" d="M849.062,228.299h3.199l5.821,9.732l5.821-9.732h3.227l-7.669,12.09v8.161h-2.743v-8.161L849.062,228.299z
                "/>
            <path fill="#BDBEBF" d="M877.23,235.259c1.305,1.268,1.957,3.132,1.957,5.592c0,2.379-0.575,4.344-1.725,5.896
                c-1.15,1.552-2.935,2.327-5.353,2.327c-2.017,0-3.618-0.686-4.805-2.059s-1.779-3.216-1.779-5.53c0-2.479,0.625-4.453,1.875-5.922
                c1.25-1.47,2.93-2.204,5.037-2.204C874.328,233.358,875.925,233.992,877.23,235.259z M875.689,245.071
                c0.604-1.243,0.906-2.628,0.906-4.151c0-1.377-0.218-2.496-0.654-3.359c-0.69-1.358-1.881-2.038-3.571-2.038
                c-1.499,0-2.59,0.578-3.271,1.735c-0.682,1.156-1.022,2.552-1.022,4.186c0,1.569,0.341,2.878,1.022,3.924
                c0.682,1.047,1.763,1.569,3.244,1.569C873.97,246.937,875.085,246.315,875.689,245.071z"/>
            <path fill="#BDBEBF" d="M884.715,233.786v9.801c0,0.754,0.116,1.37,0.35,1.848c0.43,0.882,1.23,1.323,2.403,1.323
                c1.682,0,2.828-0.772,3.437-2.316c0.331-0.827,0.497-1.962,0.497-3.404v-7.251h2.481v14.764h-2.344l0.027-2.178
                c-0.316,0.561-0.708,1.033-1.178,1.42c-0.929,0.771-2.056,1.157-3.381,1.157c-2.065,0-3.473-0.703-4.221-2.108
                c-0.405-0.754-0.608-1.76-0.608-3.02v-10.035H884.715z"/>
            <path fill="#BDBEBF" d="M898.004,233.786h2.357v2.55c0.192-0.496,0.666-1.101,1.42-1.812c0.753-0.712,1.622-1.068,2.605-1.068
                c0.046,0,0.124,0.005,0.234,0.014s0.298,0.027,0.564,0.055v2.619c-0.146-0.027-0.282-0.046-0.406-0.055s-0.26-0.014-0.406-0.014
                c-1.25,0-2.211,0.402-2.882,1.206c-0.671,0.805-1.006,1.73-1.006,2.777v8.492h-2.481V233.786z"/>
            <path fill="#BDBEBF" d="M915.442,228.299h8.756c2.386,0,4.084,0.708,5.092,2.123c0.593,0.837,0.889,1.802,0.889,2.896
                c0,1.277-0.363,2.325-1.089,3.143c-0.377,0.433-0.92,0.827-1.627,1.186c1.038,0.396,1.814,0.841,2.33,1.337
                c0.909,0.883,1.364,2.101,1.364,3.653c0,1.306-0.411,2.486-1.234,3.543c-1.229,1.581-3.186,2.371-5.867,2.371h-8.613V228.299z
                 M923.173,236.859c1.17,0,2.08-0.16,2.73-0.482c1.021-0.505,1.532-1.415,1.532-2.729c0-1.323-0.544-2.214-1.63-2.674
                c-0.613-0.258-1.523-0.386-2.73-0.386h-4.945v6.271H923.173z M924.1,246.206c1.698,0,2.908-0.486,3.633-1.461
                c0.454-0.615,0.682-1.36,0.682-2.233c0-1.47-0.663-2.472-1.99-3.005c-0.705-0.285-1.638-0.428-2.797-0.428h-5.497v7.127H924.1z"/>
            <path fill="#BDBEBF" d="M936.492,233.786v9.801c0,0.754,0.116,1.37,0.35,1.848c0.43,0.882,1.23,1.323,2.403,1.323
                c1.682,0,2.828-0.772,3.437-2.316c0.331-0.827,0.497-1.962,0.497-3.404v-7.251h2.481v14.764h-2.344l0.027-2.178
                c-0.316,0.561-0.708,1.033-1.178,1.42c-0.929,0.771-2.056,1.157-3.381,1.157c-2.065,0-3.473-0.703-4.221-2.108
                c-0.405-0.754-0.608-1.76-0.608-3.02v-10.035H936.492z"/>
            <path fill="#BDBEBF" d="M951.188,243.918c0.075,0.827,0.285,1.461,0.633,1.902c0.638,0.8,1.745,1.199,3.32,1.199
                c0.938,0,1.764-0.2,2.477-0.6s1.069-1.018,1.069-1.854c0-0.634-0.285-1.116-0.854-1.447c-0.364-0.202-1.084-0.437-2.157-0.703
                l-2.004-0.496c-1.279-0.312-2.223-0.661-2.83-1.048c-1.083-0.671-1.625-1.599-1.625-2.784c0-1.397,0.51-2.527,1.53-3.392
                c1.02-0.863,2.391-1.296,4.114-1.296c2.254,0,3.879,0.653,4.875,1.958c0.624,0.827,0.927,1.719,0.909,2.674h-2.344
                c-0.048-0.558-0.25-1.064-0.607-1.521c-0.583-0.648-1.595-0.974-3.033-0.974c-0.96,0-1.687,0.179-2.181,0.536
                s-0.741,0.829-0.741,1.415c0,0.641,0.325,1.153,0.974,1.538c0.375,0.229,0.927,0.431,1.657,0.605l1.672,0.399
                c1.816,0.433,3.033,0.851,3.651,1.255c0.966,0.634,1.448,1.631,1.448,2.991c0,1.314-0.505,2.449-1.515,3.405
                c-1.01,0.955-2.547,1.434-4.613,1.434c-2.224,0-3.798-0.499-4.724-1.496s-1.422-2.23-1.486-3.701H951.188z"/>
            <path fill="#BDBEBF"
                  d="M963.828,228.299h2.523v2.812h-2.523V228.299z M963.828,233.854h2.523v14.695h-2.523V233.854z"/>
            <path fill="#BDBEBF" d="M970.101,233.786h2.357v2.095c0.698-0.863,1.438-1.484,2.22-1.86c0.781-0.377,1.649-0.565,2.605-0.565
                c2.096,0,3.511,0.73,4.246,2.191c0.404,0.8,0.606,1.944,0.606,3.433v9.471h-2.522v-9.305c0-0.901-0.134-1.627-0.4-2.179
                c-0.441-0.919-1.24-1.378-2.398-1.378c-0.588,0-1.07,0.06-1.447,0.179c-0.681,0.202-1.277,0.606-1.792,1.213
                c-0.414,0.487-0.683,0.99-0.807,1.51s-0.187,1.262-0.187,2.227v7.733h-2.481V233.786z"/>
            <path fill="#BDBEBF" d="M994.922,234.192c0.977,0.492,1.722,1.128,2.232,1.909c0.494,0.744,0.822,1.613,0.987,2.605
                c0.146,0.681,0.219,1.765,0.219,3.253h-10.738c0.045,1.503,0.396,2.708,1.053,3.615c0.657,0.908,1.674,1.361,3.05,1.361
                c1.286,0,2.312-0.429,3.078-1.287c0.429-0.499,0.732-1.076,0.911-1.731h2.439c-0.063,0.542-0.277,1.146-0.641,1.812
                c-0.363,0.667-0.768,1.211-1.215,1.634c-0.748,0.735-1.674,1.231-2.777,1.489c-0.593,0.146-1.264,0.22-2.011,0.22
                c-1.827,0-3.375-0.668-4.645-2.005c-1.27-1.338-1.904-3.21-1.904-5.618c0-2.371,0.64-4.296,1.918-5.776
                c1.279-1.479,2.95-2.219,5.015-2.219C992.935,233.455,993.944,233.701,994.922,234.192z M995.811,239.989
                c-0.101-1.075-0.333-1.935-0.697-2.578c-0.675-1.194-1.8-1.792-3.377-1.792c-1.13,0-2.077,0.411-2.843,1.233
                c-0.766,0.823-1.171,1.868-1.217,3.137H995.811z"/>
            <path fill="#BDBEBF" d="M1002.979,243.918c0.075,0.827,0.285,1.461,0.633,1.902c0.638,0.8,1.745,1.199,3.32,1.199
                c0.938,0,1.764-0.2,2.477-0.6s1.069-1.018,1.069-1.854c0-0.634-0.285-1.116-0.854-1.447c-0.364-0.202-1.084-0.437-2.157-0.703
                l-2.004-0.496c-1.279-0.312-2.223-0.661-2.83-1.048c-1.083-0.671-1.625-1.599-1.625-2.784c0-1.397,0.51-2.527,1.53-3.392
                c1.02-0.863,2.391-1.296,4.114-1.296c2.254,0,3.879,0.653,4.875,1.958c0.624,0.827,0.927,1.719,0.909,2.674h-2.344
                c-0.048-0.558-0.25-1.064-0.607-1.521c-0.583-0.648-1.595-0.974-3.033-0.974c-0.96,0-1.687,0.179-2.181,0.536
                s-0.741,0.829-0.741,1.415c0,0.641,0.325,1.153,0.974,1.538c0.375,0.229,0.927,0.431,1.657,0.605l1.672,0.399
                c1.816,0.433,3.033,0.851,3.651,1.255c0.966,0.634,1.448,1.631,1.448,2.991c0,1.314-0.505,2.449-1.515,3.405
                c-1.01,0.955-2.547,1.434-4.613,1.434c-2.224,0-3.798-0.499-4.724-1.496s-1.422-2.23-1.486-3.701H1002.979z"/>
            <path fill="#BDBEBF" d="M1017.095,243.918c0.075,0.827,0.285,1.461,0.633,1.902c0.638,0.8,1.745,1.199,3.32,1.199
                c0.938,0,1.764-0.2,2.477-0.6s1.069-1.018,1.069-1.854c0-0.634-0.285-1.116-0.854-1.447c-0.364-0.202-1.084-0.437-2.157-0.703
                l-2.004-0.496c-1.279-0.312-2.223-0.661-2.83-1.048c-1.083-0.671-1.625-1.599-1.625-2.784c0-1.397,0.51-2.527,1.53-3.392
                c1.02-0.863,2.391-1.296,4.114-1.296c2.254,0,3.879,0.653,4.875,1.958c0.624,0.827,0.927,1.719,0.909,2.674h-2.344
                c-0.048-0.558-0.25-1.064-0.607-1.521c-0.583-0.648-1.595-0.974-3.033-0.974c-0.96,0-1.687,0.179-2.181,0.536
                s-0.741,0.829-0.741,1.415c0,0.641,0.325,1.153,0.974,1.538c0.375,0.229,0.927,0.431,1.657,0.605l1.672,0.399
                c1.816,0.433,3.033,0.851,3.651,1.255c0.966,0.634,1.448,1.631,1.448,2.991c0,1.314-0.505,2.449-1.515,3.405
                c-1.01,0.955-2.547,1.434-4.613,1.434c-2.224,0-3.798-0.499-4.724-1.496s-1.422-2.23-1.486-3.701H1017.095z"/>
            <path fill="#BDBEBF" d="M1039.255,228.299l3.817,16.453l4.577-16.453h2.966l4.587,16.484l3.818-16.484h3.007l-5.32,20.251h-2.882
                l-4.673-16.791l-4.701,16.791h-2.881l-5.294-20.251H1039.255z"/>
            <path fill="#BDBEBF"
                  d="M1064.227,228.299h2.523v2.812h-2.523V228.299z M1064.227,233.854h2.523v14.695h-2.523V233.854z"/>
            <path fill="#BDBEBF" d="M1070.996,229.664h2.509v4.122h2.357v2.026h-2.357v9.636c0,0.515,0.174,0.859,0.523,1.034
                c0.193,0.101,0.515,0.151,0.965,0.151c0.119,0,0.248-0.003,0.386-0.009c0.139-0.007,0.299-0.021,0.483-0.047v1.972
                c-0.285,0.083-0.582,0.143-0.89,0.18c-0.308,0.036-0.641,0.055-0.999,0.055c-1.158,0-1.944-0.297-2.357-0.89
                c-0.414-0.593-0.62-1.362-0.62-2.309v-9.773h-1.999v-2.026h1.999V229.664z"/>
            <path fill="#BDBEBF" d="M1078.343,228.23h2.481v7.554c0.588-0.744,1.117-1.268,1.586-1.571c0.799-0.523,1.796-0.785,2.991-0.785
                c2.141,0,3.593,0.749,4.356,2.246c0.413,0.818,0.62,1.953,0.62,3.405v9.471h-2.551v-9.305c0-1.085-0.138-1.88-0.413-2.386
                c-0.45-0.809-1.296-1.213-2.537-1.213c-1.029,0-1.962,0.354-2.798,1.062c-0.837,0.708-1.255,2.045-1.255,4.012v7.83h-2.481V228.23
                z"/>
            <path fill="#BDBEBF" d="M1105.183,228.299v12.518c0,1.471,0.278,2.692,0.834,3.667c0.824,1.471,2.214,2.205,4.169,2.205
                c2.343,0,3.937-0.795,4.779-2.385c0.454-0.863,0.681-2.026,0.681-3.487v-12.518h2.771v11.373c0,2.491-0.337,4.407-1.01,5.749
                c-1.236,2.444-3.569,3.667-7,3.667s-5.759-1.223-6.985-3.667c-0.674-1.342-1.01-3.258-1.01-5.749v-11.373H1105.183z"/>
            <path fill="#BDBEBF" d="M1123.752,243.918c0.075,0.827,0.285,1.461,0.633,1.902c0.638,0.8,1.745,1.199,3.32,1.199
                c0.938,0,1.764-0.2,2.477-0.6s1.069-1.018,1.069-1.854c0-0.634-0.285-1.116-0.854-1.447c-0.364-0.202-1.084-0.437-2.157-0.703
                l-2.004-0.496c-1.279-0.312-2.223-0.661-2.83-1.048c-1.083-0.671-1.625-1.599-1.625-2.784c0-1.397,0.51-2.527,1.53-3.392
                c1.02-0.863,2.391-1.296,4.114-1.296c2.254,0,3.879,0.653,4.875,1.958c0.624,0.827,0.927,1.719,0.909,2.674h-2.344
                c-0.048-0.558-0.25-1.064-0.607-1.521c-0.583-0.648-1.595-0.974-3.033-0.974c-0.96,0-1.687,0.179-2.181,0.536
                s-0.741,0.829-0.741,1.415c0,0.641,0.325,1.153,0.974,1.538c0.375,0.229,0.927,0.431,1.657,0.605l1.672,0.399
                c1.816,0.433,3.033,0.851,3.651,1.255c0.966,0.634,1.448,1.631,1.448,2.991c0,1.314-0.505,2.449-1.515,3.405
                c-1.01,0.955-2.547,1.434-4.613,1.434c-2.224,0-3.798-0.499-4.724-1.496s-1.422-2.23-1.486-3.701H1123.752z"/>
            <path fill="#F36B31" d="M1151.327,258.31v-3.781c1.182-0.346,2.009-0.755,2.481-1.227c0.804-0.787,1.221-2.038,1.252-3.753v-5.972
                c0-2.234,0.435-3.89,1.305-4.968s2.254-2.019,4.151-2.821c-2.072-1.007-3.499-2.151-4.282-3.434
                c-0.782-1.282-1.174-2.954-1.174-5.016v-5.476c0-1.747-0.279-2.935-0.839-3.564c-0.559-0.629-1.523-1.085-2.895-1.369v-3.78
                c1.579,0.016,2.795,0.11,3.647,0.283c1.405,0.268,2.637,0.812,3.695,1.631c1.058,0.819,1.792,1.827,2.203,3.024
                c0.41,1.197,0.616,2.245,0.616,3.144v6.333c0,2.253,0.512,3.907,1.536,4.963c0.63,0.63,1.756,1.213,3.379,1.749v2.859
                c-1.339,0.378-2.355,0.866-3.049,1.465c-1.244,1.071-1.866,2.615-1.866,4.632v7.397c0,2.395-0.83,4.249-2.487,5.564
                c-1.658,1.315-3.656,2.005-5.993,2.068L1151.327,258.31z"/>
        </g>
    </g>
        <g id="Logo">
        <g>
            <path fill="#DEDEDF" d="M85.911,180.345c-1.601,0-2.49-0.89-2.846-2.49l-4.98-25.97H46.423l-4.802,25.97
                c-0.356,1.601-1.245,2.49-2.846,2.49H19.742c-1.957,0-2.846-1.067-2.312-3.023L46.957,40.537c0.356-1.778,1.423-2.49,3.024-2.49
                h24.724c1.601,0,2.668,0.712,3.024,2.49l29.527,136.784c0.355,1.956-0.356,3.023-2.49,3.023H85.911z M62.253,69.175L50.87,131.252
                h22.768L62.253,69.175z"/>
            <path fill="#DEDEDF" d="M123.265,40.894c0-1.779,1.067-2.847,2.846-2.847H168.8c16.72,0,25.614,8.895,25.614,25.614v43.4
                c0,16.542-8.894,25.613-25.614,25.613h-21.345v44.824c0,1.778-0.889,2.846-2.846,2.846h-18.499c-1.779,0-2.846-1.067-2.846-2.846
                V40.894z M163.108,109.196c4.803,0,7.115-2.668,7.115-7.115V68.642c0-4.625-2.312-7.115-7.115-7.115h-15.653v47.67H163.108z"/>
            <path fill="#DEDEDF" d="M270.191,180.345c-1.601,0-2.49-0.89-2.846-2.49l-4.98-25.97h-31.661l-4.802,25.97
                c-0.356,1.601-1.245,2.49-2.846,2.49h-19.032c-1.957,0-2.846-1.067-2.312-3.023l29.526-136.784c0.356-1.778,1.423-2.49,3.024-2.49
                h24.724c1.601,0,2.668,0.712,3.024,2.49l29.527,136.784c0.355,1.956-0.356,3.023-2.49,3.023H270.191z M246.534,69.175
                l-11.384,62.077h22.768L246.534,69.175z"/>
            <path fill="#DEDEDF" d="M380.651,107.062c0,11.917-4.447,19.744-12.985,23.479l12.273,46.602c0.533,2.135-0.534,3.202-2.49,3.202
                H358.95c-1.778,0-2.668-0.89-3.023-2.49l-11.917-45.18h-12.273v44.824c0,1.778-1.067,2.846-2.846,2.846h-18.499
                c-1.779,0-2.846-1.067-2.846-2.846V40.894c0-1.779,1.067-2.847,2.846-2.847h44.646c16.72,0,25.614,8.895,25.614,25.614V107.062z
                 M349.345,109.196c4.625,0,7.115-2.49,7.115-7.115V68.642c0-4.625-2.49-7.115-7.115-7.115h-17.609v47.67H349.345z"/>
            <path fill="#DEDEDF" d="M469.408,58.681c0,1.778-0.711,3.023-2.846,3.023h-44.468v35.574h33.974c1.779,0,2.846,1.067,2.846,3.024
                v17.609c0,1.956-1.067,3.023-2.846,3.023h-33.974v35.93h44.468c2.134,0,2.846,0.89,2.846,2.847v17.787
                c0,1.778-0.711,2.846-2.846,2.846h-65.457c-1.601,0-2.668-1.067-2.668-2.846V40.894c0-1.779,1.067-2.847,2.668-2.847h65.457
                c2.134,0,2.846,1.067,2.846,2.847V58.681z"/>
            <path fill="#DEDEDF" d="M556.744,82.871c0,1.778-1.067,2.846-2.846,2.846h-17.787c-1.957,0-2.846-1.067-2.846-2.846V68.642
                c0-4.625-2.49-7.115-7.115-7.115h-9.249c-4.803,0-7.115,2.49-7.115,7.115v81.109c0,4.803,2.49,7.114,7.115,7.114h9.249
                c4.625,0,7.115-2.312,7.115-7.114v-14.229c0-1.779,0.889-2.847,2.846-2.847h17.787c1.779,0,2.846,1.067,2.846,2.847v19.21
                c0,16.72-9.071,25.613-25.614,25.613h-19.921c-16.72,0-25.792-8.894-25.792-25.613v-91.07c0-16.72,9.071-25.614,25.792-25.614
                h19.921c16.542,0,25.614,8.895,25.614,25.614V82.871z"/>
            <path fill="#DEDEDF" d="M595.876,38.047c1.779,0,2.846,1.067,2.846,2.847v136.605c0,1.778-1.067,2.846-2.846,2.846h-18.499
                c-1.957,0-2.846-1.067-2.846-2.846V40.894c0-1.779,0.889-2.847,2.846-2.847H595.876z"/>
            <path fill="#DEDEDF" d="M684.101,38.047c1.957,0,3.558,1.602,3.558,3.558v113.127c0,16.72-8.894,25.613-25.613,25.613h-19.922
                c-16.72,0-25.613-8.894-25.613-25.613V41.604c0-1.956,1.601-3.558,3.558-3.558h17.075c1.957,0,3.558,1.602,3.558,3.558v108.146
                c0,4.803,2.49,7.114,7.115,7.114h9.249c4.625,0,7.115-2.312,7.115-7.114V41.604c0-1.956,1.601-3.558,3.558-3.558H684.101z"/>
            <path fill="#DEDEDF" d="M799.721,38.047c2.312,0,3.558,1.245,3.558,3.558v135.183c0,2.312-1.245,3.558-3.558,3.558h-16.542
                c-2.312,0-3.558-1.245-3.558-3.558V96.745h-1.244l-17.609,80.397c-0.534,2.135-1.779,3.202-3.914,3.202h-8.715
                c-2.135,0-3.38-1.067-3.914-3.202l-17.608-80.397h-1.245v80.042c0,2.312-1.245,3.558-3.558,3.558h-16.364
                c-2.312,0-3.558-1.245-3.558-3.558V41.604c0-2.312,1.245-3.558,3.558-3.558h23.479c2.135,0,3.38,1.067,3.914,3.202l19.743,88.58
                l19.744-88.58c0.533-2.135,1.778-3.202,3.913-3.202H799.721z"/>
        </g>
            <g>
            <path fill="#F36B30" d="M847.949,156.866h42.334c1.956,0,2.846,1.067,2.846,2.847V177.5c0,1.956-0.89,2.846-2.846,2.846h-63.679
                c-1.778,0-2.846-0.89-2.846-2.846V40.895c0-1.779,1.067-2.846,2.846-2.846h18.499c1.956,0,2.846,1.066,2.846,2.846V156.866z"/>
                <path fill="#F36B30" d="M974.24,180.346c-1.601,0-2.49-0.89-2.846-2.49l-4.98-25.969h-31.661l-4.803,25.969
                c-0.355,1.601-1.245,2.49-2.846,2.49h-19.032c-1.957,0-2.847-1.067-2.312-3.023l29.526-136.784
                c0.355-1.778,1.423-2.489,3.024-2.489h24.724c1.601,0,2.668,0.711,3.023,2.489l29.527,136.784c0.355,1.956-0.356,3.023-2.49,3.023
                H974.24z M950.583,69.176l-11.384,62.077h22.768L950.583,69.176z"/>
                <path fill="#F36B30" d="M1082.921,96.391c0,6.581-4.802,11.562-11.205,12.629v0.355c6.403,1.067,11.205,6.048,11.205,12.629
                v32.729c0,16.72-9.071,25.613-25.791,25.613h-42.689c-1.778,0-2.846-1.067-2.846-2.846V40.895c0-1.957,1.067-2.846,2.846-2.846
                h42.689c16.72,0,25.791,8.894,25.791,25.613V96.391z M1059.265,68.643c0-4.625-2.312-7.115-7.115-7.115h-16.187v35.93h16.187
                c4.625,0,7.115-2.49,7.115-6.937V68.643z M1059.265,128.052c0-4.625-2.312-7.115-7.115-7.115h-16.187v35.93h16.187
                c4.625,0,7.115-2.312,7.115-7.114V128.052z"/>
                <path fill="#F36B30" d="M1146.244,38.049c16.72,0,25.613,8.894,25.613,25.613v18.854c0,1.778-0.889,2.846-2.846,2.846h-18.499
                c-1.778,0-2.846-1.067-2.846-2.846V68.643c0-4.625-2.312-7.115-7.114-7.115h-8.538c-4.447,0-7.115,2.49-7.115,7.115v24.546
                l42.334,13.874c3.023,1.245,4.624,3.202,4.624,6.581v41.089c0,16.72-8.894,25.613-25.613,25.613h-19.922
                c-16.542,0-25.613-8.894-25.613-25.613v-18.677c0-1.957,1.067-2.846,2.846-2.846h18.499c1.956,0,2.846,0.889,2.846,2.846v13.696
                c0,4.803,2.668,7.114,7.115,7.114h8.538c4.624,0,7.114-2.312,7.114-7.114v-23.657l-42.155-13.874
                c-3.202-1.067-4.803-3.201-4.803-6.581V63.662c0-16.72,9.071-25.613,25.613-25.613H1146.244z"/>
        </g>
    </g>
</svg>
